# xmcd
#
# Track frame offsets:
#	150
#	10498
#	23403
#	33706
#	44924
#	56838
#	65699
#	79339
#	91167
#	101279
#	114128
#	132028
#
# Disc length: 1886 seconds
#
# Revision: 0
# Processed by: cddbd v1.5.2PL0 Copyright (c) Steve Scherf et al.
# Submitted via: audiograbber 1.83.01
#
DISCID=99075c0c
DTITLE=Various Artist - Original Rock´n´Roll Super Hits nrg
DYEAR=1984
DGENRE=Rock´n´Roll
TTITLE0=Little Richard - Tutti Frutti
TTITLE1=Lulu and The Luvers - Shout
TTITLE2=Dion - Dream Lover
TTITLE3=Johnny Tillotson - Poetry In Motion
TTITLE4=Chuck Berry - Johnny B. Goode
TTITLE5=Little Richard - Long Tall Sally
TTITLE6=Chuck Berry - Sweet Little Sixteen
TTITLE7=Dion - Runaround Sue
TTITLE8=The Everly Brothers - Keep A Knockin´
TTITLE9=LLoyd Price - Stagger Lee
TTITLE10=Eric Burdon and The Animals - See See Rider
TTITLE11=Rod Stewart - Good Morning Little Schoolgirl
EXTD=
EXTT0=
EXTT1=
EXTT2=
EXTT3=
EXTT4=
EXTT5=
EXTT6=
EXTT7=
EXTT8=
EXTT9=
EXTT10=
EXTT11=
PLAYORDER=
